<?xml version="1.0" encoding="UTF-8"?>
<svg xmlns="http://www.w3.org/2000/svg" viewBox="0 0 64 64">
  <rect x="4" y="4" width="56" height="56" rx="14" fill="#ffffff"/>
  <g transform="translate(8 13.6) scale(1.945)" fill="#1a1a2e">
    <path d="M3.72,6.11c-.84,2.24-.84,4.48,0,6.72V6.11Z"/>
    <path d="M23.64,2.71c-.77-.51-1.64-.67-2.54-.72-.09,0-.36-.03-.46-.04-.24-.02-.31,0-.56-.02,0,.01,0,.03,0,.05,.02,0,.05,0,.07,0,.6,.09,1.18,.23,1.7,.54,.79,.47,1.14,1.22,1.01,2.13-.08,.54-.28,1.04-.55,1.51-.18,.32-.38,.63-.6,.92,0,0,0,0,0,0-.52-2.02-1.68-3.78-3.27-5.04C17.02,.92,15.27,.19,13.32,.03c-2.71-.22-5.06,.7-6.76,2.09-.78,.64-1.42,1.37-1.91,2.13,0,.01-.02,.03-.03,.04-.02,.04-.05,.08-.07,.12-.05,.09-.11,.18-.15,.27,.05,0,.09-.01,.12-.02,0,0,0,0,0,0,.95-.17,1.89-.37,2.84-.5,.48-.07,.97-.1,1.47-.13,.09,0,.18-.01,.27-.02,.04,0,.08,0,.12,0,.12,0,.24-.02,.36-.03,.52-.04,1.04-.05,1.56-.03,.72,.03,1.44,.12,2.15,.3,.76,.2,1.43,.5,2,.91,.26,.19,.5,.4,.71,.63,.05,.05,.1,.1,.14,.16,.41,.48,.74,1.05,.98,1.71,.35,.96,.52,1.96,.53,2.98,0,.05,0,.09,0,.14-1.45,1.01-2.99,1.86-4.6,2.59,0-.58,0-1.15-.01-1.73,0-.62-.07-1.25-.19-1.86-.23-1.23-.97-1.85-2.22-1.86-.63,0-1.25,.04-1.88,.08-.04,0-.09,0-.13,0-.07,0-.13,0-.17,.02-.12,.03-.13,.09-.13,.31v6.7c-1.16,.27-2.7,.44-3.83,.49-.15-.01-.29-.02-.43-.03,0,0-.01,0-.02,0-.58-.04-1.14-.14-1.68-.37-.61-.26-1.11-.65-1.34-1.3-.18-.53-.13-1.06,.04-1.57,.12-.35,.28-.69,.44-1.09-.51,.65-.94,1.3-1.23,2.02-.23,.57-.36,1.15-.27,1.76,.13,.87,.68,1.42,1.45,1.78,.85,.39,1.76,.49,2.68,.5,.91,.01,1.8-.08,2.7-.24,.04,0,.07-.01,.11-.01h0s.53-.09,1.37-.29v1.06c0,.14,.02,.24,.17,.31,1.35,.62,2.77,.93,4.26,.88,.3,0,.3-.01,.3-.3,0-1.18,0-2.37,0-3.55,.17-.08,.34-.16,.52-.24h.01c1.41-.64,2.78-1.36,4.09-2.19,0,.31,0,.63,0,.94,0,1.19,0,2.37,0,3.56v.25c2.29-1.37,4.4-4.36,4.32-8.1,.5-.49,.96-1.02,1.39-1.59,.55-.74,1.02-1.54,1.22-2.46,.23-1.05-.11-1.95-.97-2.53Z"/>
  </g>
</svg>
